#!OML:ASF C:\Vicon Data\Big\jianyuan-11\jianyuan\Session 1\male.ASF
:FULLY-SPECIFIED
:DEGREES
28
root -8.234976 15.941811 -21.329264 -9.822492 -1.829937 10.266612
lowerback 3.043842 0.742740 -5.708836 
upperback 6.709020 1.464617 -0.877400 
thorax 5.170315 0.647617 2.316826 
lowerneck -8.868640 -11.826291 -13.829032 
upperneck 21.442317 -16.377952 13.405974 
head 10.643539 -7.150917 4.894590 
rclavicle 0.000000 0.000000 
rhumerus -43.828635 -29.682588 -72.754425 
rradius 34.607365 
rwrist 1.645499 
rhand -15.114675 -0.205711 
rfingers 0.000000 
rthumb 11.054144 -29.894632 
lclavicle 0.000000 0.000000 
lhumerus -14.076085 0.812985 90.021332 
lradius 57.493251 
lwrist -8.657211 
lhand -12.048550 -10.840324 
lfingers 0.000000 
lthumb 14.010249 18.667482 
rfemur -18.889725 -5.695932 25.943287 
rtibia 40.336609 
rfoot -8.176025 -9.849297 
rtoes 18.598985 
lfemur 2.967380 11.990987 -12.516156 
ltibia 63.923485 
lfoot -5.922808 21.177210 
ltoes 31.948579 
29
root -8.255978 15.941827 -21.258965 -9.879608 -2.030555 10.073221
lowerback 3.069659 0.743313 -5.568572 
upperback 6.729406 1.460021 -0.809012 
thorax 5.176994 0.649339 2.309361 
lowerneck -8.861891 -11.791606 -13.835707 
upperneck 21.409795 -16.338420 13.456690 
head 10.629706 -7.130224 4.920869 
rclavicle 0.000000 0.000000 
rhumerus -43.545449 -29.499917 -73.020042 
rradius 34.812597 
rwrist 1.312283 
rhand -15.132043 -0.161561 
rfingers 0.000000 
rthumb 11.037394 -29.851350 
lclavicle 0.000000 0.000000 
lhumerus -14.292125 1.073788 89.959164 
lradius 57.040381 
lwrist -8.771041 
lhand -12.127962 -10.897381 
lfingers 0.000000 
lthumb 13.933702 18.615665 
rfemur -18.532009 -5.619018 26.242242 
rtibia 40.305838 
rfoot -8.364287 -9.723382 
rtoes 18.750075 
lfemur 2.227553 11.732953 -12.346512 
ltibia 64.722908 
lfoot -5.119181 20.657495 
ltoes 29.921803 
30
root -8.279651 15.940715 -21.189359 -9.945271 -2.273270 9.848491
lowerback 3.095589 0.758437 -5.460844 
upperback 6.764254 1.473379 -0.684457 
thorax 5.196001 0.656186 2.378795 
lowerneck -8.818389 -11.762364 -13.876679 
upperneck 21.327565 -16.294231 13.473442 
head 10.589657 -7.118377 4.941410 
rclavicle 0.000000 0.000000 
rhumerus -43.279222 -29.338848 -73.206592 
rradius 34.982960 
rwrist 1.356293 
rhand -15.104037 0.017802 
rfingers 0.000000 
rthumb 11.064399 -29.670506 
lclavicle 0.000000 0.000000 
lhumerus -14.455171 1.359384 89.935768 
lradius 56.564038 
lwrist -8.678558 
lhand -11.985621 -10.922881 
lfingers 0.000000 
lthumb 14.070810 18.580730 
rfemur -18.155960 -5.330875 26.606815 
rtibia 40.272088 
rfoot -8.674782 -9.742937 
rtoes 19.158732 
lfemur 1.464792 11.469058 -12.095662 
ltibia 65.534256 
lfoot -4.102555 20.078095 
ltoes 28.255920 
31
root -8.303866 15.937916 -21.115529 -9.945420 -2.607354 9.626741
lowerback 3.054725 0.786167 -5.282833 
upperback 6.768402 1.506652 -0.633792 
thorax 5.220979 0.677759 2.333325 
lowerneck -8.800213 -11.720974 -13.832490 
upperneck 21.287702 -16.252332 13.516444 
head 10.564807 -7.093823 4.957907 
rclavicle 0.000000 0.000000 
rhumerus -42.999671 -29.195849 -73.546871 
rradius 35.260730 
rwrist 1.000203 
rhand -15.202931 -0.052829 
rfingers 0.000000 
rthumb 10.969066 -29.746246 
lclavicle 0.000000 0.000000 
lhumerus -14.713433 1.516793 89.743153 
lradius 56.088055 
lwrist -8.516196 
lhand -12.123616 -10.964949 
lfingers 0.000000 
lthumb 13.937819 18.547907 
rfemur -17.837648 -5.030035 26.995863 
rtibia 40.243166 
rfoot -8.893733 -9.721258 
rtoes 19.230316 
lfemur 0.654211 11.239972 -11.901435 
ltibia 66.335421 
lfoot -3.481885 19.436552 
ltoes 27.460437 
32
root -8.308665 15.938298 -21.045526 -9.901732 -2.824499 9.464558
lowerback 3.066207 0.782077 -4.922259 
upperback 6.747940 1.495189 -0.654326 
thorax 5.197121 0.689978 2.109996 
lowerneck -8.864783 -11.682011 -13.669165 
upperneck 21.270245 -16.211061 13.482356 
head 10.545011 -7.063370 4.923922 
rclavicle 0.000000 0.000000 
rhumerus -42.709690 -29.119965 -73.791268 
rradius 35.428559 
rwrist 0.832714 
rhand -15.281049 0.125984 
rfingers 0.000000 
rthumb 10.893678 -29.571407 
lclavicle 0.000000 0.000000 
lhumerus -14.916296 1.712750 89.589674 
lradius 55.482648 
lwrist -8.665838 
lhand -12.364717 -10.909965 
lfingers 0.000000 
lthumb 13.705506 18.618752 
rfemur -17.647787 -5.223990 27.198678 
rtibia 40.226246 
rfoot -8.816539 -9.427616 
rtoes 18.690704 
lfemur -0.359763 10.858873 -12.017122 
ltibia 67.120915 
lfoot -2.748077 19.004296 
ltoes 25.504710 
33
root -8.318544 15.942145 -20.970827 -9.859170 -3.090622 9.349584
lowerback 2.995821 0.814630 -4.672435 
upperback 6.715833 1.534986 -0.671728 
thorax 5.202965 0.720391 1.953928 
lowerneck -8.705427 -11.660557 -13.568316 
upperneck 21.208378 -16.203065 13.483454 
head 10.480965 -7.058928 4.917509 
rclavicle 0.000000 0.000000 
rhumerus -42.481763 -29.013863 -74.041435 
rradius 35.657150 
rwrist 0.355332 
rhand -15.345359 0.173393 
rfingers 0.000000 
rthumb 10.831661 -29.527243 
lclavicle 0.000000 0.000000 
lhumerus -15.160781 1.921504 89.473564 
lradius 54.813061 
lwrist -8.862875 
lhand -12.567206 -10.889190 
lfingers 0.000000 
lthumb 13.510389 18.652586 
rfemur -17.413677 -5.226584 27.381096 
rtibia 40.209406 
rfoot -8.884484 -9.200413 
rtoes 18.802489 
lfemur -1.320322 10.413610 -12.189076 
ltibia 67.841997 
lfoot -2.496943 18.517679 
ltoes 24.973568 
34
root -8.336652 15.944078 -20.893557 -9.887003 -3.409426 9.226699
lowerback 2.999012 0.904783 -4.487407 
upperback 6.695447 1.651987 -0.697814 
thorax 5.174743 0.788325 1.824501 
lowerneck -8.543767 -11.663181 -13.376514 
upperneck 21.157990 -16.245266 13.497285 
head 10.421316 -7.066752 4.893787 
rclavicle 0.000000 0.000000 
rhumerus -42.361936 -29.102357 -74.276432 
rradius 35.965123 
rwrist -0.024363 
rhand -15.422728 0.105111 
rfingers 0.000000 
rthumb 10.757029 -29.599440 
lclavicle 0.000000 0.000000 
lhumerus -15.355025 2.103670 89.348495 
lradius 54.070811 
lwrist -8.634268 
lhand -12.447620 -11.052134 
lfingers 0.000000 
lthumb 13.625622 18.481831 
rfemur -17.068483 -5.092164 27.609181 
rtibia 40.204504 
rfoot -9.063374 -9.017271 
rtoes 19.180904 
lfemur -2.132920 10.103452 -12.173377 
ltibia 68.471883 
lfoot -2.288956 18.001030 
ltoes 24.465338 
35
root -8.358797 15.943524 -20.815823 -9.980585 -3.742006 9.132460
lowerback 3.072360 1.021340 -4.395584 
upperback 6.698505 1.804635 -0.705214 
thorax 5.128212 0.870624 1.765487 
lowerneck -8.396991 -11.681688 -13.199184 
upperneck 21.086007 -16.310141 13.534712 
head 10.364094 -7.084342 4.875826 
rclavicle 0.000000 0.000000 
rhumerus -42.262015 -29.186056 -74.477488 
rradius 36.279928 
rwrist -0.370709 
rhand -15.571223 0.174269 
rfingers 0.000000 
rthumb 10.613775 -29.537644 
lclavicle 0.000000 0.000000 
lhumerus -15.535410 2.246218 89.240902 
lradius 53.253575 
lwrist -8.646079 
lhand -12.428140 -11.195185 
lfingers 0.000000 
lthumb 13.644357 18.337530 
rfemur -16.639771 -4.891475 27.826038 
rtibia 40.203789 
rfoot -9.268727 -8.901291 
rtoes 19.390164 
lfemur -2.822161 9.781248 -12.127007 
ltibia 69.010474 
lfoot -2.362484 17.478616 
ltoes 23.255098 
36
root -8.381997 15.941386 -20.736430 -10.058291 -4.122189 9.078059
lowerback 3.082654 1.131917 -4.373496 
upperback 6.729774 1.953887 -0.683911 
thorax 5.146118 0.945460 1.777176 
lowerneck -8.313237 -11.695435 -13.170246 
upperneck 21.030902 -16.354284 13.621135 
head 10.340862 -7.097954 4.898765 
rclavicle 0.000000 0.000000 
rhumerus -42.073073 -29.140421 -74.685245 
rradius 36.584165 
rwrist -0.703490 
rhand -15.715807 0.250385 
rfingers 0.000000 
rthumb 10.474307 -29.468639 
lclavicle 0.000000 0.000000 
lhumerus -15.682925 2.491805 89.162091 
lradius 52.337394 
lwrist -9.325247 
lhand -12.699332 -11.169643 
lfingers 0.000000 
lthumb 13.383007 18.380429 
rfemur -16.217771 -4.626404 28.022208 
rtibia 40.200832 
rfoot -9.446466 -8.818997 
rtoes 19.310394 
lfemur -3.489173 9.300454 -12.221473 
ltibia 69.463824 
lfoot -2.867321 16.854686 
ltoes 23.386931 
37
root -8.404184 15.938648 -20.656921 -10.139350 -4.521732 9.038842
lowerback 3.121415 1.209261 -4.333200 
upperback 6.760358 2.057586 -0.667804 
thorax 5.150595 0.999121 1.771806 
lowerneck -8.353032 -11.686299 -13.128167 
upperneck 21.070279 -16.347134 13.616628 
head 10.357136 -7.088399 4.890614 
rclavicle 0.000000 0.000000 
rhumerus -41.794909 -29.060194 -74.926152 
rradius 36.889549 
rwrist -1.105989 
rhand -15.713255 0.169344 
rfingers 0.000000 
rthumb 10.476782 -29.549586 
lclavicle 0.000000 0.000000 
lhumerus -15.793198 2.934591 89.064602 
lradius 51.342440 
lwrist -9.966368 
lhand -12.991079 -11.083412 
lfingers 0.000000 
lthumb 13.101849 18.484994 
rfemur -15.794943 -4.365603 28.198823 
rtibia 40.198189 
rfoot -9.597693 -8.700244 
rtoes 19.170499 
lfemur -4.167881 8.810490 -12.367606 
ltibia 69.862423 
lfoot -3.305243 16.261200 
ltoes 24.272072 
38
root -8.425192 15.937375 -20.579247 -10.262741 -4.877945 8.993050
lowerback 3.251199 1.261151 -4.274853 
upperback 6.781860 2.122599 -0.649183 
thorax 5.096471 1.036207 1.755679 
lowerneck -8.401958 -11.663700 -13.057887 
upperneck 21.136550 -16.313475 13.553812 
head 10.372212 -7.068940 4.861542 
rclavicle 0.000000 0.000000 
rhumerus -41.491638 -28.985563 -75.151712 
rradius 37.153549 
rwrist -1.608208 
rhand -15.745924 0.163895 
rfingers 0.000000 
rthumb 10.445263 -29.556613 
lclavicle 0.000000 0.000000 
lhumerus -15.925712 3.391078 88.966863 
lradius 50.352440 
lwrist -9.930574 
lhand -13.191924 -11.083262 
lfingers 0.000000 
lthumb 12.908200 18.497438 
rfemur -15.326314 -4.112422 28.363712 
rtibia 40.187525 
rfoot -9.783882 -8.591565 
rtoes 19.194762 
lfemur -4.817343 8.387466 -12.463925 
ltibia 70.210462 
lfoot -3.619643 15.871313 
ltoes 24.256711 
